<?xml version="1.0" standalone="no"?>
<!DOCTYPE svg PUBLIC "-//W3C//DTD SVG 20010904//EN"
 "http://www.w3.org/TR/2001/REC-SVG-20010904/DTD/svg10.dtd">
<svg version="1.0" xmlns="http://www.w3.org/2000/svg"
 width="500.000000pt" height="500.000000pt" viewBox="0 0 500.000000 500.000000"
 preserveAspectRatio="xMidYMid meet">
<metadata>
Created by potrace 1.14, written by Peter Selinger 2001-2017
</metadata>
<g transform="translate(0.000000,500.000000) scale(0.100000,-0.100000)"
fill="#000000" stroke="none">
<path d="M2520 4580 c-14 -5 -574 -187 -1245 -405 -731 -239 -1224 -404 -1232
-414 -7 -9 -18 -33 -24 -53 -14 -44 -1 -101 29 -133 12 -13 169 -68 460 -160
l442 -140 0 -517 0 -517 53 -39 c179 -134 499 -263 812 -327 360 -73 792 -84
1215 -29 331 43 670 157 896 302 135 86 128 72 121 274 -4 95 -12 211 -19 258
-18 120 -16 228 5 267 14 27 17 63 17 238 l0 205 26 10 c14 6 30 10 35 10 5 0
9 -62 9 -145 l0 -145 37 20 c41 22 87 26 127 10 l26 -9 2 167 3 166 315 98
c199 62 320 104 328 115 7 10 18 34 24 54 14 47 -6 115 -42 140 -14 10 -464
153 -1000 319 -536 166 -1037 322 -1113 346 -113 36 -150 44 -210 43 -39 0
-83 -4 -97 -9z"/>
<path d="M626 1775 c-28 -30 -81 -168 -102 -265 -41 -194 13 -463 107 -533 26
-19 27 -19 285 22 489 77 761 112 1037 134 l157 13 0 -22 c0 -31 26 -54 60
-54 16 0 31 -4 34 -9 3 -5 -46 -131 -109 -281 -91 -217 -113 -276 -104 -291 5
-10 13 -19 16 -19 11 0 117 62 164 96 l46 33 17 -78 c14 -68 37 -111 58 -111
19 0 158 472 158 537 0 16 8 25 24 29 35 8 43 0 51 -53 9 -62 76 -324 110
-431 20 -65 30 -82 45 -82 25 0 35 20 50 105 7 39 14 73 16 77 3 3 30 -18 61
-48 94 -89 134 -69 93 45 -13 36 -56 156 -95 266 l-71 200 55 8 c69 11 81 20
81 63 l0 34 98 0 c209 0 673 -33 997 -70 304 -35 275 -29 262 -57 -15 -33 8
-54 67 -60 41 -5 48 -3 75 26 83 89 126 388 81 567 -23 89 -84 222 -107 231
-23 9 -47 -21 -35 -44 46 -86 57 -294 23 -438 -30 -123 -79 -237 -100 -231
-32 10 -389 65 -516 80 -226 27 -464 46 -663 53 -106 3 -195 10 -198 15 -3 5
17 30 45 56 67 61 67 81 0 143 -43 39 -50 52 -45 71 15 54 18 118 7 132 -7 8
-34 18 -59 21 -91 12 -90 11 -121 80 -35 77 -44 79 -131 34 l-60 -31 -56 32
c-74 41 -93 37 -124 -26 -37 -76 -43 -81 -112 -87 -72 -6 -93 -24 -84 -72 22
-111 22 -108 -33 -160 -28 -27 -51 -56 -51 -65 0 -8 23 -38 50 -65 79 -78 77
-80 -112 -94 -342 -25 -810 -84 -1082 -137 -70 -14 -130 -23 -133 -21 -2 3 2
36 9 73 8 42 13 147 13 264 0 282 -30 410 -98 418 -19 2 -34 -5 -51 -23z
m2011 -108 c75 -39 118 -80 150 -145 24 -48 28 -69 27 -137 0 -97 -22 -153
-89 -224 -69 -73 -127 -96 -250 -96 -90 0 -105 3 -151 27 -95 50 -144 136
-144 254 0 123 75 246 184 301 28 14 55 32 60 40 14 26 149 13 213 -20z
m-1925 -237 c1 -181 -19 -369 -35 -330 -16 39 -14 371 3 480 l14 95 9 -45 c5
-25 9 -115 9 -200z m-95 168 c-3 -8 -6 -5 -6 6 -1 11 2 17 5 13 3 -3 4 -12 1
-19z m-17 -84 c-6 -32 -10 -113 -11 -179 -1 -110 -2 -116 -11 -65 -11 61 -5
177 13 258 15 71 21 61 9 -14z m3810 -258 c-16 -110 -56 -216 -82 -216 -15 0
-18 4 -13 18 57 139 93 273 97 352 1 38 2 36 6 -15 2 -33 -2 -96 -8 -139z
m-2115 -248 c15 -39 15 -44 -9 -117 -13 -42 -36 -115 -50 -162 -25 -83 -27
-87 -78 -121 -103 -68 -101 -70 -43 60 49 109 99 250 125 349 13 52 32 49 55
-9z m430 -84 c13 -49 42 -141 64 -204 22 -63 38 -116 35 -119 -2 -3 -20 11
-40 30 -31 31 -38 48 -60 150 -14 62 -31 130 -38 149 -8 24 -9 44 -2 62 5 15
11 26 13 24 2 -2 14 -43 28 -92z m-49 -144 l40 -137 -17 -49 -16 -49 -12 45
c-10 37 -78 266 -98 331 -4 14 0 15 29 6 33 -10 34 -13 74 -147z m-335 -48
c-26 -105 -50 -194 -53 -197 -3 -3 -12 22 -21 56 -15 61 -15 61 13 124 15 34
38 94 51 133 19 59 38 85 56 78 1 -1 -20 -88 -46 -194z"/>
<path d="M2375 1628 c-189 -131 -210 -394 -38 -490 70 -39 143 -46 231 -23 57
16 75 27 124 75 45 45 60 69 73 115 53 182 -66 341 -265 353 -72 4 -77 3 -125
-30z m195 -58 c0 -50 -177 -310 -212 -310 -32 0 -10 43 89 174 102 137 123
160 123 136z m20 -113 c0 -2 -7 -26 -15 -54 -15 -50 -38 -73 -51 -52 -9 15 36
109 53 109 7 0 13 -1 13 -3z"/>
<path d="M3337 1293 c-15 -15 -6 -43 16 -47 12 -3 90 -7 172 -11 83 -3 217
-14 299 -23 123 -15 149 -16 153 -5 3 8 4 15 2 17 -2 2 -71 16 -154 30 -213
37 -470 57 -488 39z"/>
<path d="M1224 1250 c-123 -13 -213 -31 -224 -45 -15 -18 -1 -45 24 -45 11 1
98 15 191 33 127 25 170 36 170 47 0 18 -56 21 -161 10z"/>
</g>
</svg>
